<svg width="140" height="94" viewBox="0 0 140 94" fill="none" xmlns="http://www.w3.org/2000/svg">
<path d="M112.875 35.5668C108.908 15.4418 91.2333 0.333496 70 0.333496C53.1417 0.333496 38.5 9.90016 31.2083 23.9002C13.65 25.7668 0 40.6418 0 58.6668C0 77.9752 15.6917 93.6668 35 93.6668H110.833C126.933 93.6668 140 80.6002 140 64.5002C140 49.1002 128.042 36.6168 112.875 35.5668ZM110.833 82.0002H35C22.1083 82.0002 11.6667 71.5585 11.6667 58.6668C11.6667 46.7085 20.5917 36.7335 32.4333 35.5085L38.675 34.8668L41.5917 29.3252C47.1333 18.6502 57.9833 12.0002 70 12.0002C85.2833 12.0002 98.4667 22.8502 101.442 37.8418L103.192 46.5918L112.117 47.2335C121.217 47.8168 128.333 55.4585 128.333 64.5002C128.333 74.1252 120.458 82.0002 110.833 82.0002ZM58.3333 59.7168L46.1417 47.5252L37.9167 55.7502L58.3333 76.1668L93.3917 41.1085L85.1667 32.8835L58.3333 59.7168Z" fill="#00366B"/>
</svg>
